# RokuSuper Output Ver6.0 for Wavefront Obj

v -0.05000000 -0.08500000 0.04000000
v -0.05000000 -0.08500000 -0.04000000
v 0.05000000 -0.08500000 0.04000000
v 0.05000000 -0.08500000 -0.04000000
v 0.05000000 -0.11000000 0.04000000
v 0.05000000 -0.06000000 0.04000000
v 0.05000000 -0.06000000 -0.04000000
v 0.05000000 -0.11000000 -0.04000000
v -0.04000000 -0.11000000 0.04000000
v -0.04000000 -0.06000000 0.04000000
v -0.04000000 -0.06000000 -0.04000000
v -0.04000000 -0.11000000 -0.04000000
v -0.05000000 0.08500000 0.04000000
v -0.05000000 0.08500000 -0.04000000
v 0.05000000 0.08500000 0.04000000
v 0.05000000 0.08500000 -0.04000000
v 0.05000000 0.06000000 0.04000000
v 0.05000000 0.11000000 0.04000000
v 0.05000000 0.11000000 -0.04000000
v 0.05000000 0.06000000 -0.04000000
v -0.04000000 0.06000000 0.04000000
v -0.04000000 0.11000000 0.04000000
v -0.04000000 0.11000000 -0.04000000
v -0.04000000 0.06000000 -0.04000000
v 0.07000000 -0.07661097 0.04000000
v 0.07000000 0.07338903 0.04000000
v 0.07000000 0.07338903 -0.04000000
v 0.07000000 -0.07661097 -0.04000000
v 0.05000000 -0.07661097 0.04000000
v 0.05000000 0.07338903 0.04000000
v 0.05000000 0.07338903 -0.04000000
v 0.05000000 -0.07661097 -0.04000000

vt 0.96245416 0.36131416
vt 0.96042316 0.35623666
vt 0.98073316 0.35623666
vt 0.98073316 0.36131416
vt 0.98073316 0.35115916
vt 0.98073316 0.35623666
vt 0.96042316 0.35623666
vt 0.96245416 0.35115916
vt 0.96042316 0.35623666
vt 0.96245416 0.35115916
vt 0.96245416 0.35115916
vt 0.96042316 0.35623666
vt 0.96245416 0.36131416
vt 0.96042316 0.35623666
vt 0.96042316 0.35623666
vt 0.96245416 0.36131416
vt 0.96042316 0.35623666
vt 0.96245416 0.36131416
vt 0.98073316 0.36131416
vt 0.98073316 0.35623666
vt 0.96245416 0.35115916
vt 0.96042316 0.35623666
vt 0.98073316 0.35623666
vt 0.98073316 0.35115916
vt 0.98073316 0.35623666
vt 0.98073316 0.35115916
vt 0.98073316 0.35115916
vt 0.98073316 0.35623666
vt 0.98073316 0.36131416
vt 0.98073316 0.35623666
vt 0.98073316 0.35623666
vt 0.98073316 0.36131416
vt 0.96245416 0.36131416
vt 0.98073316 0.36131416
vt 0.98073316 0.36131416
vt 0.96245416 0.36131416
vt 0.96245416 0.35115916
vt 0.96245416 0.35115916
vt 0.98073316 0.35115916
vt 0.98073316 0.35115916
vt 0.96245416 0.39584116
vt 0.96042316 0.39076366
vt 0.98073316 0.39076366
vt 0.98073316 0.39584116
vt 0.98073316 0.38568616
vt 0.98073316 0.39076366
vt 0.96042316 0.39076366
vt 0.96245416 0.38568616
vt 0.96042316 0.39076366
vt 0.96245416 0.38568616
vt 0.96245416 0.38568616
vt 0.96042316 0.39076366
vt 0.96245416 0.39584116
vt 0.96042316 0.39076366
vt 0.96042316 0.39076366
vt 0.96245416 0.39584116
vt 0.96042316 0.39076366
vt 0.96245416 0.39584116
vt 0.98073316 0.39584116
vt 0.98073316 0.39076366
vt 0.96245416 0.38568616
vt 0.96042316 0.39076366
vt 0.98073316 0.39076366
vt 0.98073316 0.38568616
vt 0.98073316 0.39076366
vt 0.98073316 0.38568616
vt 0.98073316 0.38568616
vt 0.98073316 0.39076366
vt 0.98073316 0.39584116
vt 0.98073316 0.39076366
vt 0.98073316 0.39076366
vt 0.98073316 0.39584116
vt 0.96245416 0.39584116
vt 0.98073316 0.39584116
vt 0.98073316 0.39584116
vt 0.96245416 0.39584116
vt 0.96245416 0.38568616
vt 0.96245416 0.38568616
vt 0.98073316 0.38568616
vt 0.98073316 0.38568616
vt 0.98479516 0.38840548
vt 0.98479516 0.35794047
vt 0.98479516 0.35794047
vt 0.98479516 0.38840548
vt 0.98073316 0.38840548
vt 0.98479516 0.38840548
vt 0.98479516 0.38840548
vt 0.98073316 0.38840548
vt 0.98073316 0.35794047
vt 0.98073316 0.38840548
vt 0.98479516 0.38840548
vt 0.98479516 0.35794047
vt 0.98073316 0.35794047
vt 0.98073316 0.35794047
vt 0.98479516 0.35794047
vt 0.98479516 0.35794047
vt 0.98073316 0.38840548
vt 0.98073316 0.35794047
vt 0.98479516 0.35794047
vt 0.98479516 0.38840548
vt 0.98073316 0.35794047
vt 0.98073316 0.35794047
vt 0.98073316 0.38840548
vt 0.98073316 0.38840548

vn -0.00000000 0.00000000 1.00000000
vn -0.00000000 -0.00000000 1.00000000
vn -0.00000000 0.00000000 1.00000000
vn -0.00000000 -0.00000000 1.00000000
vn -0.00000000 -0.00000000 1.00000000
vn -0.00000000 0.00000000 1.00000000
vn -0.00000000 -0.00000000 1.00000000
vn -0.00000000 -0.00000000 1.00000000
vn -0.99122790 -0.13216372 0.00000000
vn -0.92847669 -0.37139068 0.00000000
vn -0.92847669 -0.37139068 0.00000000
vn -0.99122790 0.13216372 0.00000000
vn -0.92847669 0.37139068 0.00000000
vn -0.99122790 -0.13216372 0.00000000
vn -0.99122790 0.13216372 0.00000000
vn -0.92847669 0.37139068 0.00000000
vn 0.00000000 0.00000000 -1.00000000
vn 0.00000000 0.00000000 -1.00000000
vn 0.00000000 0.00000000 -1.00000000
vn 0.00000000 0.00000000 -1.00000000
vn 0.00000000 0.00000000 -1.00000000
vn 0.00000000 0.00000000 -1.00000000
vn 0.00000000 0.00000000 -1.00000000
vn 0.00000000 0.00000000 -1.00000000
vn 1.00000000 0.00000000 0.00000000
vn 1.00000000 0.00000000 0.00000000
vn 1.00000000 0.00000000 0.00000000
vn 1.00000000 0.00000000 0.00000000
vn 1.00000000 0.00000000 0.00000000
vn 1.00000000 0.00000000 0.00000000
vn 1.00000000 0.00000000 0.00000000
vn 1.00000000 0.00000000 0.00000000
vn -0.00000000 1.00000000 0.00000000
vn -0.00000000 1.00000000 0.00000000
vn -0.00000000 1.00000000 0.00000000
vn -0.00000000 1.00000000 0.00000000
vn 0.00000000 -1.00000000 0.00000000
vn 0.00000000 -1.00000000 0.00000000
vn 0.00000000 -1.00000000 0.00000000
vn 0.00000000 -1.00000000 0.00000000
vn -0.00000000 0.00000000 1.00000000
vn -0.00000000 -0.00000000 1.00000000
vn -0.00000000 0.00000000 1.00000000
vn -0.00000000 -0.00000000 1.00000000
vn -0.00000000 -0.00000000 1.00000000
vn -0.00000000 0.00000000 1.00000000
vn -0.00000000 -0.00000000 1.00000000
vn -0.00000000 -0.00000000 1.00000000
vn -0.99122790 -0.13216372 0.00000000
vn -0.92847669 -0.37139068 0.00000000
vn -0.92847669 -0.37139068 0.00000000
vn -0.99122790 0.13216372 0.00000000
vn -0.92847669 0.37139068 0.00000000
vn -0.99122790 -0.13216372 0.00000000
vn -0.99122790 0.13216372 0.00000000
vn -0.92847669 0.37139068 0.00000000
vn 0.00000000 0.00000000 -1.00000000
vn 0.00000000 0.00000000 -1.00000000
vn 0.00000000 0.00000000 -1.00000000
vn 0.00000000 0.00000000 -1.00000000
vn 0.00000000 0.00000000 -1.00000000
vn 0.00000000 0.00000000 -1.00000000
vn 0.00000000 0.00000000 -1.00000000
vn 0.00000000 0.00000000 -1.00000000
vn 1.00000000 0.00000000 0.00000000
vn 1.00000000 0.00000000 0.00000000
vn 1.00000000 0.00000000 0.00000000
vn 1.00000000 0.00000000 0.00000000
vn 1.00000000 0.00000000 0.00000000
vn 1.00000000 0.00000000 0.00000000
vn 1.00000000 0.00000000 0.00000000
vn 1.00000000 0.00000000 0.00000000
vn -0.00000000 1.00000000 0.00000000
vn -0.00000000 1.00000000 0.00000000
vn -0.00000000 1.00000000 0.00000000
vn -0.00000000 1.00000000 0.00000000
vn 0.00000000 -1.00000000 0.00000000
vn 0.00000000 -1.00000000 0.00000000
vn 0.00000000 -1.00000000 0.00000000
vn 0.00000000 -1.00000000 0.00000000
vn 1.00000000 0.00000000 0.00000000
vn 1.00000000 0.00000000 0.00000000
vn 1.00000000 0.00000000 0.00000000
vn 1.00000000 0.00000000 0.00000000
vn -0.00000000 1.00000000 0.00000000
vn -0.00000000 1.00000000 0.00000000
vn -0.00000000 1.00000000 0.00000000
vn -0.00000000 1.00000000 0.00000000
vn 0.00000000 0.00000000 -1.00000000
vn 0.00000000 0.00000000 -1.00000000
vn 0.00000000 0.00000000 -1.00000000
vn 0.00000000 0.00000000 -1.00000000
vn -0.00000000 -1.00000000 0.00000000
vn -0.00000000 -1.00000000 0.00000000
vn -0.00000000 -1.00000000 0.00000000
vn -0.00000000 -1.00000000 0.00000000
vn 0.00000000 0.00000000 1.00000000
vn 0.00000000 0.00000000 1.00000000
vn 0.00000000 0.00000000 1.00000000
vn 0.00000000 0.00000000 1.00000000
vn -1.00000000 -0.00000000 0.00000000
vn -1.00000000 -0.00000000 0.00000000
vn -1.00000000 -0.00000000 0.00000000
vn -1.00000000 -0.00000000 0.00000000

g Sdkfz251_Hub_L
f 10/1/1 1/2/2 3/3/3 6/4/4
f 5/5/5 3/6/6 1/7/7 9/8/8
f 2/9/9 12/10/10 9/11/11 1/12/12
f 11/13/13 2/14/14 1/15/15 10/16/16
f 2/17/17 11/18/18 7/19/19 4/20/20
f 12/21/21 2/22/22 4/23/23 8/24/24
f 3/25/25 5/26/26 8/27/27 4/28/28
f 6/29/29 3/30/30 4/31/31 7/32/32
f 10/33/33 6/34/34 7/35/35 11/36/36
f 9/37/37 12/38/38 8/39/39 5/40/40
f 22/41/41 13/42/42 15/43/43 18/44/44
f 17/45/45 15/46/46 13/47/47 21/48/48
f 14/49/49 24/50/50 21/51/51 13/52/52
f 23/53/53 14/54/54 13/55/55 22/56/56
f 14/57/57 23/58/58 19/59/59 16/60/60
f 24/61/61 14/62/62 16/63/63 20/64/64
f 15/65/65 17/66/66 20/67/67 16/68/68
f 18/69/69 15/70/70 16/71/71 19/72/72
f 22/73/73 18/74/74 19/75/75 23/76/76
f 21/77/77 24/78/78 20/79/79 17/80/80
f 26/81/81 25/82/82 28/83/83 27/84/84
f 30/85/85 26/86/86 27/87/87 31/88/88
f 32/89/89 31/90/90 27/91/91 28/92/92
f 29/93/93 32/94/94 28/95/95 25/96/96
f 30/97/97 29/98/98 25/99/99 26/100/100
f 32/101/101 29/102/102 30/103/103 31/104/104

