# RokuSuper Output Ver6.0 for Wavefront Obj

v 0.67817422 0.45000001 -2.94560417
v 0.34065910 0.28124306 2.61482388
v 0.73942261 0.89141630 0.50226867
v 0.56000001 -0.28816819 -2.47049073
v 0.51698530 0.05918647 2.72063065
v 1.05378041 0.45000001 0.75000645
v 0.44106646 -0.28817000 2.88628496
v 0.73942261 0.89141630 -2.56029253
v 1.05378041 0.45000001 -2.62853454
v 0.56000001 -0.28816819 1.26463286
v -1.05378041 0.45000001 -2.62853454
v -0.67817422 0.45000001 -2.94560417
v -0.73942261 0.89141630 -2.56029253
v -0.34065910 0.28124306 2.61482388
v -0.44106646 -0.28817000 2.88628496
v -1.05378041 0.45000001 0.75000645
v -0.56000001 -0.28816819 1.26463286
v -0.51698530 0.05918647 2.72063065
v -0.73942261 0.89141630 0.50226867
v -0.56000001 -0.28816819 -2.47049073

vt 0.68069281 0.63369014
vt 0.62678955 0.59121029
vt 0.62678955 0.06606978
vt 0.68069281 0.05436825
vt 0.31930719 0.63369014
vt 0.31930719 0.05436825
vt 0.37321045 0.06606978
vt 0.37321045 0.59121029
vt 0.62678955 0.06606978
vt 0.62678955 0.59121029
vt 0.37321045 0.59121029
vt 0.37321045 0.06606978
vt 0.40397623 0.08146819
vt 0.40397623 0.72193365
vt 0.59602377 0.72193365
vt 0.59602377 0.08146819
vt 0.41135200 0.97159509
vt 0.58864800 0.97159509
vt 0.57563012 1.00000000
vt 0.42436988 1.00000000
vt 0.58864800 0.97159509
vt 0.41135200 0.97159509
vt 0.44158684 0.95345229
vt 0.55841316 0.95345229
vt 0.40397623 0.72193365
vt 0.31930719 0.63369014
vt 0.41135200 0.97159509
vt 0.42436988 1.00000000
vt 0.41135200 0.97159509
vt 0.31930719 0.63369014
vt 0.37321045 0.59121029
vt 0.44158684 0.95345229
vt 0.40397623 0.72193365
vt 0.40397623 0.08146819
vt 0.31930719 0.05436825
vt 0.31930719 0.63369014
vt 0.31930719 0.05436825
vt 0.40397623 0.08146819
vt 0.38371277 0.00000000
vt 0.31930719 0.05436825
vt 0.38371277 0.00000000
vt 0.37321045 0.06606978
vt 0.59602377 0.72193365
vt 0.40397623 0.72193365
vt 0.42436988 1.00000000
vt 0.57563012 1.00000000
vt 0.59602377 0.72193365
vt 0.68069281 0.63369014
vt 0.68069281 0.05436825
vt 0.59602377 0.08146819
vt 0.61628723 0.00000000
vt 0.68069281 0.05436825
vt 0.62678955 0.06606978
vt 0.59602377 0.08146819
vt 0.68069281 0.05436825
vt 0.61628723 0.00000000
vt 0.61628723 0.00000000
vt 0.38371277 0.00000000
vt 0.40397623 0.08146819
vt 0.59602377 0.08146819
vt 0.55841316 0.95345229
vt 0.44158684 0.95345229
vt 0.37321045 0.59121029
vt 0.62678955 0.59121029
vt 0.38371277 0.00000000
vt 0.61628723 0.00000000
vt 0.62678955 0.06606978
vt 0.37321045 0.06606978
vt 0.58864800 0.97159509
vt 0.55841316 0.95345229
vt 0.62678955 0.59121029
vt 0.68069281 0.63369014
vt 0.59602377 0.72193365
vt 0.57563012 1.00000000
vt 0.58864800 0.97159509
vt 0.68069281 0.63369014

vn -0.81455268 0.58008959 -0.00000000
vn -0.81455268 0.58008959 0.00000000
vn -0.81455268 0.58008959 -0.00000000
vn -0.81455268 0.58008959 -0.00000000
vn 0.81455268 0.58008959 -0.00000000
vn 0.81455268 0.58008959 -0.00000000
vn 0.81455268 0.58008959 -0.00000000
vn 0.81455268 0.58008959 0.00000000
vn 0.00000000 1.00000000 0.00000000
vn 0.00000000 1.00000000 0.00000000
vn 0.00000000 1.00000000 0.00000000
vn 0.00000000 1.00000000 0.00000000
vn 0.00000000 -1.00000000 0.00000000
vn 0.00000000 -1.00000000 0.00000000
vn 0.00000000 -1.00000000 0.00000000
vn 0.00000000 -1.00000000 0.00000000
vn 0.00000000 0.43035397 0.90266021
vn 0.00000000 0.43025236 0.90270865
vn 0.00000000 0.43045557 0.90261177
vn 0.00000000 0.43045557 0.90261177
vn 0.00000000 0.43025236 0.90270865
vn 0.00000000 0.43035397 0.90266021
vn 0.00000000 0.43015075 0.90275707
vn 0.00000000 0.43015075 0.90275707
vn 0.93599699 -0.33515629 0.10760987
vn 0.86538967 -0.48104928 0.14032933
vn 0.93599699 -0.33515629 0.10760987
vn 0.98101349 -0.18009990 0.07194829
vn 0.67064649 0.66989052 0.31855922
vn 0.67976967 0.66167215 0.31639085
vn 0.67064649 0.66989052 0.31855922
vn 0.66141905 0.67800473 0.32067807
vn 0.83118228 -0.55600001 0.00000000
vn 0.83118228 -0.55600001 0.00000000
vn 0.83118228 -0.55600001 0.00000000
vn 0.83118228 -0.55600001 0.00000000
vn 0.55432263 -0.51139393 -0.65666023
vn 0.55432263 -0.51139393 -0.65666023
vn 0.55432263 -0.51139393 -0.65666023
vn 0.55859173 0.50010524 -0.66171748
vn 0.55859173 0.50010524 -0.66171748
vn 0.55859173 0.50010524 -0.66171748
vn 0.00000000 -1.00000000 -0.00000112
vn 0.00000000 -1.00000000 -0.00000112
vn 0.00000000 -1.00000000 -0.00000112
vn 0.00000000 -1.00000000 -0.00000112
vn -0.83118228 -0.55600001 0.00000000
vn -0.83118228 -0.55600001 0.00000000
vn -0.83118228 -0.55600001 0.00000000
vn -0.83118228 -0.55600001 0.00000000
vn -0.55859173 0.50010524 -0.66171748
vn -0.55859173 0.50010524 -0.66171748
vn -0.55859173 0.50010524 -0.66171748
vn -0.55432263 -0.51139393 -0.65666023
vn -0.55432263 -0.51139393 -0.65666023
vn -0.55432263 -0.51139393 -0.65666023
vn 0.00000000 -0.54122238 -0.84087950
vn 0.00000000 -0.54122238 -0.84087950
vn 0.00000000 -0.54122238 -0.84087950
vn 0.00000000 -0.54122238 -0.84087950
vn 0.00000000 0.96072879 0.27748908
vn 0.00000000 0.96072879 0.27748908
vn 0.00000000 0.96072879 0.27748908
vn 0.00000000 0.96072879 0.27748908
vn 0.00000000 0.65760749 -0.75336073
vn 0.00000000 0.65760749 -0.75336073
vn 0.00000000 0.65760749 -0.75336073
vn 0.00000000 0.65760749 -0.75336073
vn -0.67064649 0.66989052 0.31855922
vn -0.66141905 0.67800473 0.32067807
vn -0.67064649 0.66989052 0.31855922
vn -0.67976967 0.66167215 0.31639085
vn -0.93599699 -0.33515629 0.10760987
vn -0.98101349 -0.18009990 0.07194829
vn -0.93599699 -0.33515629 0.10760987
vn -0.86538967 -0.48104928 0.14032933

g Sdkfz251_Body_Collider_Upper
f 16/1/1 19/2/2 13/3/3 11/4/4
f 6/5/5 9/6/6 8/7/7 3/8/8
f 13/9/9 19/10/10 3/11/11 8/12/12
f 4/13/13 10/14/14 17/15/15 20/16/16
f 5/17/17 18/18/18 15/19/19 7/20/20
f 18/21/21 5/22/22 2/23/23 14/24/24
f 10/25/25 6/26/26 5/27/27 7/28/28
f 5/29/29 6/30/30 3/31/31 2/32/32
f 10/33/33 4/34/34 9/35/35 6/36/36
f 9/37/37 4/38/38 1/39/39
f 9/40/40 1/41/41 8/42/42
f 17/43/43 10/44/44 7/45/45 15/46/46
f 17/47/47 16/48/48 11/49/49 20/50/50
f 12/51/51 11/52/52 13/53/53
f 20/54/54 11/55/55 12/56/56
f 12/57/57 1/58/58 4/59/59 20/60/60
f 14/61/61 2/62/62 3/63/63 19/64/64
f 1/65/65 12/66/66 13/67/67 8/68/68
f 18/69/69 14/70/70 19/71/71 16/72/72
f 17/73/73 15/74/74 18/75/75 16/76/76

