# RokuSuper Output Ver6.0 for Wavefront Obj

v 0.04000000 0.02000000 0.09000000
v 0.00000000 0.02000000 0.09000000
v 0.00000000 0.04000000 -0.15000000
v 0.04000000 0.04000000 -0.15000000
v 0.04000000 -0.02000000 0.09000000
v 0.00000000 -0.02000000 0.09000000
v 0.00000000 -0.04000000 -0.15000000
v 0.04000000 -0.04000000 -0.15000000
v 0.00000000 0.00000000 -0.15000000
v 0.27000000 -0.00000000 -0.15000000
v 0.27000000 0.06000000 -0.15000000
v 0.00000000 0.06000000 -0.15000000
v 0.27000000 0.04242641 -0.19242641
v 0.00000000 0.04242641 -0.19242641
v 0.27000000 -0.00000000 -0.21000000
v 0.00000000 0.00000000 -0.21000000
v 0.27000000 -0.04242641 -0.19242641
v 0.00000000 -0.04242641 -0.19242641
v 0.27000000 -0.06000000 -0.15000000
v 0.00000000 -0.06000000 -0.15000000
v 0.27000000 -0.04242641 -0.10757359
v 0.00000000 -0.04242641 -0.10757359
v 0.27000000 -0.00000000 -0.09000000
v 0.00000000 0.00000000 -0.09000000
v 0.27000000 0.04242641 -0.10757359
v 0.00000000 0.04242641 -0.10757359

vt 0.91130683 0.92450368
vt 0.91130683 0.92450368
vt 0.88432636 0.88535514
vt 0.88432636 0.88535514
vt 0.91787392 0.92071217
vt 0.91130683 0.92450368
vt 0.88432636 0.88535514
vt 0.89746053 0.87777212
vt 0.89746053 0.87777212
vt 0.89746053 0.87777212
vt 0.88432636 0.88535514
vt 0.88432636 0.88535514
vt 0.91787392 0.92071217
vt 0.89746053 0.87777212
vt 0.88432636 0.88535514
vt 0.91130683 0.92450368
vt 0.91787392 0.92071217
vt 0.91787392 0.92071217
vt 0.91130683 0.92450368
vt 0.91130683 0.92450368
vt 0.89746053 0.87777212
vt 0.91787392 0.92071217
vt 0.91787392 0.92071217
vt 0.89746053 0.87777212
vt 0.88285044 0.87352062
vt 0.89089344 0.88156363
vt 0.87951892 0.88156363
vt 0.88285044 0.87352062
vt 0.87951892 0.88156363
vt 0.87951892 0.88156363
vt 0.88285044 0.87352062
vt 0.87951892 0.88156363
vt 0.89089344 0.88156363
vt 0.88285044 0.87352062
vt 0.89089344 0.87018910
vt 0.89089344 0.88156363
vt 0.88285044 0.87352062
vt 0.89089344 0.87018910
vt 0.88285044 0.87352062
vt 0.88285044 0.87352062
vt 0.89089344 0.87018910
vt 0.88285044 0.87352062
vt 0.89089344 0.88156363
vt 0.89089344 0.87018910
vt 0.89893645 0.87352062
vt 0.89089344 0.88156363
vt 0.89089344 0.87018910
vt 0.89893645 0.87352062
vt 0.89089344 0.87018910
vt 0.89089344 0.87018910
vt 0.89893645 0.87352062
vt 0.89089344 0.87018910
vt 0.89089344 0.88156363
vt 0.89893645 0.87352062
vt 0.90226797 0.88156363
vt 0.89089344 0.88156363
vt 0.89893645 0.87352062
vt 0.90226797 0.88156363
vt 0.89893645 0.87352062
vt 0.89893645 0.87352062
vt 0.90226797 0.88156363
vt 0.89893645 0.87352062
vt 0.89089344 0.88156363
vt 0.90226797 0.88156363
vt 0.89893645 0.88960663
vt 0.89089344 0.88156363
vt 0.90226797 0.88156363
vt 0.89893645 0.88960663
vt 0.90226797 0.88156363
vt 0.90226797 0.88156363
vt 0.89893645 0.88960663
vt 0.90226797 0.88156363
vt 0.89089344 0.88156363
vt 0.89893645 0.88960663
vt 0.89089344 0.89293816
vt 0.89089344 0.88156363
vt 0.89893645 0.88960663
vt 0.89089344 0.89293816
vt 0.89893645 0.88960663
vt 0.89893645 0.88960663
vt 0.89089344 0.89293816
vt 0.89893645 0.88960663
vt 0.89089344 0.88156363
vt 0.89089344 0.89293816
vt 0.88285044 0.88960663
vt 0.89089344 0.88156363
vt 0.89089344 0.89293816
vt 0.88285044 0.88960663
vt 0.89089344 0.89293816
vt 0.89089344 0.89293816
vt 0.88285044 0.88960663
vt 0.89089344 0.89293816
vt 0.89089344 0.88156363
vt 0.88285044 0.88960663
vt 0.87951892 0.88156363
vt 0.89089344 0.88156363
vt 0.88285044 0.88960663
vt 0.87951892 0.88156363
vt 0.88285044 0.88960663
vt 0.88285044 0.88960663
vt 0.87951892 0.88156363
vt 0.88285044 0.88960663
vt 0.89089344 0.88156363
vt 0.87951892 0.88156363

vn -0.00000000 0.99654576 0.08304548
vn -0.00000000 0.99654576 0.08304548
vn -0.00000000 0.99654576 0.08304548
vn -0.00000000 0.99654576 0.08304548
vn -1.00000000 0.00000000 -0.00000000
vn -1.00000000 0.00000000 -0.00000000
vn -1.00000000 0.00000000 -0.00000000
vn -1.00000000 0.00000000 -0.00000000
vn 0.00000000 -0.00000000 -1.00000000
vn 0.00000000 -0.00000000 -1.00000000
vn 0.00000000 -0.00000000 -1.00000000
vn 0.00000000 -0.00000000 -1.00000000
vn 1.00000000 -0.00000000 0.00000000
vn 1.00000000 -0.00000000 0.00000000
vn 1.00000000 -0.00000000 0.00000000
vn 1.00000000 -0.00000000 0.00000000
vn -0.00000000 0.00000000 1.00000000
vn -0.00000000 0.00000000 1.00000000
vn -0.00000000 0.00000000 1.00000000
vn 0.00000000 0.00000000 1.00000000
vn 0.00000000 -0.99654576 0.08304548
vn 0.00000000 -0.99654576 0.08304548
vn 0.00000000 -0.99654576 0.08304548
vn 0.00000000 -0.99654576 0.08304548
vn -1.00000000 0.00000000 0.00000000
vn -1.00000000 0.00000000 0.00000000
vn -1.00000000 0.00000000 0.00000000
vn 0.00000000 0.79717519 -0.60374806
vn 0.00000000 0.99060233 0.13677364
vn 0.00000000 0.99060233 -0.13677364
vn 0.00000000 0.60374806 -0.79717519
vn 1.00000000 -0.00000000 -0.00000000
vn 1.00000000 -0.00000000 -0.00000000
vn 1.00000000 -0.00000000 -0.00000000
vn -1.00000000 0.00000000 0.00000000
vn -1.00000000 0.00000000 0.00000000
vn -1.00000000 0.00000000 0.00000000
vn 0.00000000 0.13677364 -0.99060233
vn 0.00000000 0.79717519 -0.60374806
vn 0.00000000 0.60374806 -0.79717519
vn 0.00000000 -0.13677364 -0.99060233
vn 1.00000000 -0.00000000 -0.00000000
vn 1.00000000 -0.00000000 -0.00000000
vn 1.00000000 -0.00000000 -0.00000000
vn -1.00000000 0.00000000 0.00000000
vn -1.00000000 0.00000000 0.00000000
vn -1.00000000 0.00000000 0.00000000
vn 0.00000000 -0.60374806 -0.79717519
vn 0.00000000 0.13677364 -0.99060233
vn 0.00000000 -0.13677364 -0.99060233
vn -0.00000000 -0.79717519 -0.60374806
vn 1.00000000 -0.00000000 -0.00000000
vn 1.00000000 -0.00000000 -0.00000000
vn 1.00000000 -0.00000000 -0.00000000
vn -1.00000000 0.00000000 0.00000000
vn -1.00000000 0.00000000 0.00000000
vn -1.00000000 0.00000000 0.00000000
vn -0.00000000 -0.99060233 -0.13677364
vn 0.00000000 -0.60374806 -0.79717519
vn -0.00000000 -0.79717519 -0.60374806
vn -0.00000000 -0.99060233 0.13677364
vn 1.00000000 -0.00000000 -0.00000000
vn 1.00000000 -0.00000000 -0.00000000
vn 1.00000000 -0.00000000 -0.00000000
vn -1.00000000 0.00000000 0.00000000
vn -1.00000000 0.00000000 0.00000000
vn -1.00000000 0.00000000 0.00000000
vn -0.00000000 -0.79717519 0.60374806
vn -0.00000000 -0.99060233 -0.13677364
vn -0.00000000 -0.99060233 0.13677364
vn -0.00000000 -0.60374806 0.79717519
vn 1.00000000 -0.00000000 -0.00000000
vn 1.00000000 -0.00000000 -0.00000000
vn 1.00000000 -0.00000000 -0.00000000
vn -1.00000000 0.00000000 0.00000000
vn -1.00000000 0.00000000 0.00000000
vn -1.00000000 0.00000000 0.00000000
vn -0.00000000 -0.13677364 0.99060233
vn -0.00000000 -0.79717519 0.60374806
vn -0.00000000 -0.60374806 0.79717519
vn -0.00000000 0.13677364 0.99060233
vn 1.00000000 -0.00000000 -0.00000000
vn 1.00000000 -0.00000000 -0.00000000
vn 1.00000000 -0.00000000 -0.00000000
vn -1.00000000 0.00000000 0.00000000
vn -1.00000000 0.00000000 0.00000000
vn -1.00000000 0.00000000 0.00000000
vn -0.00000000 0.60374806 0.79717519
vn -0.00000000 -0.13677364 0.99060233
vn -0.00000000 0.13677364 0.99060233
vn 0.00000000 0.79717519 0.60374806
vn 1.00000000 -0.00000000 -0.00000000
vn 1.00000000 -0.00000000 -0.00000000
vn 1.00000000 -0.00000000 -0.00000000
vn -1.00000000 0.00000000 0.00000000
vn -1.00000000 0.00000000 0.00000000
vn -1.00000000 0.00000000 0.00000000
vn 0.00000000 0.99060233 0.13677364
vn -0.00000000 0.60374806 0.79717519
vn 0.00000000 0.79717519 0.60374806
vn 0.00000000 0.99060233 -0.13677364
vn 1.00000000 -0.00000000 -0.00000000
vn 1.00000000 -0.00000000 -0.00000000
vn 1.00000000 -0.00000000 -0.00000000

g Sdkfz251_Idler_Arm_L
f 2/1/1 1/2/2 4/3/3 3/4/4
f 6/5/5 2/6/6 3/7/7 7/8/8
f 8/9/9 7/10/10 3/11/11 4/12/12
f 5/13/13 8/14/14 4/15/15 1/16/16
f 6/17/17 5/18/18 1/19/19 2/20/20
f 8/21/21 5/22/22 6/23/23 7/24/24
f 14/25/25 9/26/26 12/27/27
f 14/28/28 12/29/29 11/30/30 13/31/31
f 11/32/32 10/33/33 13/34/34
f 16/35/35 9/36/36 14/37/37
f 16/38/38 14/39/39 13/40/40 15/41/41
f 13/42/42 10/43/43 15/44/44
f 18/45/45 9/46/46 16/47/47
f 18/48/48 16/49/49 15/50/50 17/51/51
f 15/52/52 10/53/53 17/54/54
f 20/55/55 9/56/56 18/57/57
f 20/58/58 18/59/59 17/60/60 19/61/61
f 17/62/62 10/63/63 19/64/64
f 22/65/65 9/66/66 20/67/67
f 22/68/68 20/69/69 19/70/70 21/71/71
f 19/72/72 10/73/73 21/74/74
f 24/75/75 9/76/76 22/77/77
f 24/78/78 22/79/79 21/80/80 23/81/81
f 21/82/82 10/83/83 23/84/84
f 26/85/85 9/86/86 24/87/87
f 26/88/88 24/89/89 23/90/90 25/91/91
f 23/92/92 10/93/93 25/94/94
f 12/95/95 9/96/96 26/97/97
f 12/98/98 26/99/99 25/100/100 11/101/101
f 25/102/102 10/103/103 11/104/104

