# RokuSuper Output Ver6.0 for Wavefront Obj

v -2.05000003 0.77000001 5.25000008
v -2.05000003 0.77000001 -5.20000008
v -2.05000003 1.50000002 -5.20000008
v -2.05000003 1.50000002 2.85000004
v 2.05000003 1.50000002 -5.20000008
v 2.05000003 1.50000002 2.85000004
v 2.05000003 0.77000001 -5.20000008
v 2.05000003 0.77000001 5.25000008

vt 0.30382775 0.00000000
vt 0.30382775 1.00000000
vt 0.69617225 1.00000000
vt 0.69617225 0.00000000
vt 0.30382775 0.00000000
vt 0.69617225 0.00000000
vt 0.69617225 0.77033493
vt 0.30382775 0.77033493
vt 0.69617225 0.00000000
vt 0.30382775 0.00000000
vt 0.30382775 0.00000000
vt 0.69617225 0.00000000
vt 0.30382775 1.00000000
vt 0.30382775 0.00000000
vt 0.30382775 0.00000000
vt 0.30382775 0.77033493
vt 0.69617225 1.00000000
vt 0.30382775 1.00000000
vt 0.30382775 0.77033493
vt 0.69617225 0.77033493
vt 0.69617225 0.00000000
vt 0.69617225 1.00000000
vt 0.69617225 0.77033493
vt 0.69617225 0.00000000

vn 0.00000000 -1.00000000 0.00000000
vn 0.00000000 -1.00000000 0.00000000
vn 0.00000000 -1.00000000 0.00000000
vn 0.00000000 -1.00000000 0.00000000
vn 0.00000000 1.00000000 0.00000000
vn 0.00000000 1.00000000 0.00000000
vn 0.00000000 1.00000000 0.00000000
vn 0.00000000 1.00000000 0.00000000
vn 0.00000000 0.00000000 -1.00000000
vn 0.00000000 0.00000000 -1.00000000
vn 0.00000000 0.00000000 -1.00000000
vn 0.00000000 0.00000000 -1.00000000
vn 1.00000000 -0.00000000 -0.00000000
vn 1.00000000 -0.00000000 -0.00000000
vn 1.00000000 -0.00000000 -0.00000000
vn 1.00000000 -0.00000000 -0.00000000
vn 0.00000000 0.95672214 0.29100299
vn 0.00000000 0.95672214 0.29100299
vn 0.00000000 0.95672214 0.29100299
vn 0.00000000 0.95672214 0.29100299
vn -1.00000000 0.00000000 0.00000000
vn -1.00000000 0.00000000 0.00000000
vn -1.00000000 0.00000000 0.00000000
vn -1.00000000 0.00000000 0.00000000

g Karl_Body_Collider_Upper
f 7/1/1 8/2/2 1/3/3 2/4/4
f 5/5/5 3/6/6 4/7/7 6/8/8
f 3/9/9 5/10/10 7/11/11 2/12/12
f 8/13/13 7/14/14 5/15/15 6/16/16
f 1/17/17 8/18/18 6/19/19 4/20/20
f 2/21/21 1/22/22 4/23/23 3/24/24

