# RokuSuper Output Ver6.0 for Wavefront Obj

v -0.95000001 1.50000002 -2.30000003
v 0.95000001 1.50000002 -5.20000008
v -0.95000001 1.50000002 -5.20000008
v -0.95000001 -0.45000001 -3.80000006
v -0.95000001 -0.45000001 3.70000006
v -0.95000001 -0.02500000 5.60000008
v -0.95000001 -0.12000000 -5.20000008
v -0.95000001 1.50000002 5.60000008
v 0.95000001 -0.02500000 5.60000008
v 0.95000001 -0.45000001 3.70000006
v 0.95000001 -0.45000001 -3.80000006
v 0.95000001 1.50000002 5.60000008
v 0.95000001 -0.12000000 -5.20000008
v 0.95000001 1.50000002 3.70000006
v -0.95000001 1.50000002 3.70000006
v 0.95000001 1.50000002 -2.30000003

vt 0.41203704 0.00000000
vt 0.58796296 0.00000000
vt 0.58796296 0.26851852
vt 0.41203704 0.26851852
vt 0.41203704 0.00000000
vt 0.41203704 0.26851852
vt 0.41203704 0.12962963
vt 0.41203704 0.00000000
vt 0.58796296 0.00000000
vt 0.58796296 0.00000000
vt 0.58796296 0.12962963
vt 0.58796296 0.26851852
vt 0.58796296 0.82407407
vt 0.58796296 0.82407407
vt 0.58796296 0.26851852
vt 0.58796296 0.12962963
vt 0.58796296 1.00000000
vt 0.58796296 0.82407407
vt 0.58796296 0.82407407
vt 0.58796296 1.00000000
vt 0.41203704 0.82407407
vt 0.41203704 0.26851852
vt 0.58796296 0.26851852
vt 0.58796296 0.82407407
vt 0.41203704 1.00000000
vt 0.41203704 1.00000000
vt 0.41203704 0.82407407
vt 0.41203704 0.82407407
vt 0.58796296 1.00000000
vt 0.41203704 1.00000000
vt 0.41203704 1.00000000
vt 0.58796296 1.00000000
vt 0.41203704 0.82407407
vt 0.41203704 0.12962963
vt 0.41203704 0.26851852
vt 0.41203704 0.82407407
vt 0.58796296 0.82407407
vt 0.58796296 0.12962963
vt 0.41203704 0.12962963
vt 0.41203704 0.82407407
vt 0.41203704 0.12962963
vt 0.58796296 0.12962963
vt 0.58796296 0.00000000
vt 0.41203704 0.00000000
vt 0.58796296 0.82407407
vt 0.58796296 1.00000000
vt 0.41203704 1.00000000
vt 0.41203704 0.82407407
vt 0.58796296 0.82407407
vt 0.41203704 0.82407407
vt 0.41203704 1.00000000
vt 0.58796296 1.00000000
vt 0.58796296 0.00000000
vt 0.41203704 0.00000000
vt 0.41203704 0.00000000
vt 0.58796296 0.00000000

vn 0.00000000 1.00000000 0.00000000
vn 0.00000000 1.00000000 0.00000000
vn 0.00000000 1.00000000 0.00000000
vn 0.00000000 1.00000000 0.00000000
vn 1.00000000 0.00000000 0.00000000
vn 1.00000000 0.00000000 0.00000000
vn 1.00000000 0.00000000 0.00000000
vn 1.00000000 0.00000000 0.00000000
vn -1.00000000 0.00000000 0.00000000
vn -1.00000000 0.00000000 0.00000000
vn -1.00000000 0.00000000 0.00000000
vn -1.00000000 0.00000000 0.00000000
vn -1.00000000 0.00000000 0.00000000
vn -1.00000000 0.00000000 0.00000000
vn -1.00000000 0.00000000 0.00000000
vn -1.00000000 0.00000000 0.00000000
vn -1.00000000 0.00000000 0.00000000
vn -1.00000000 0.00000000 0.00000000
vn -1.00000000 0.00000000 0.00000000
vn -1.00000000 0.00000000 0.00000000
vn 0.00000000 1.00000000 0.00000000
vn 0.00000000 1.00000000 0.00000000
vn 0.00000000 1.00000000 0.00000000
vn 0.00000000 1.00000000 0.00000000
vn 1.00000000 0.00000000 0.00000000
vn 1.00000000 0.00000000 0.00000000
vn 1.00000000 0.00000000 0.00000000
vn 1.00000000 0.00000000 0.00000000
vn 0.00000000 -0.00000000 1.00000000
vn 0.00000000 -0.00000000 1.00000000
vn 0.00000000 -0.00000000 1.00000000
vn 0.00000000 -0.00000000 1.00000000
vn 1.00000000 0.00000000 0.00000000
vn 1.00000000 0.00000000 0.00000000
vn 1.00000000 0.00000000 0.00000000
vn 1.00000000 0.00000000 0.00000000
vn 0.00000000 -1.00000000 -0.00000000
vn 0.00000000 -1.00000000 -0.00000000
vn 0.00000000 -1.00000000 -0.00000000
vn 0.00000000 -1.00000000 -0.00000000
vn 0.00000000 -0.97332591 -0.22942682
vn 0.00000000 -0.97332591 -0.22942682
vn 0.00000000 -0.97332591 -0.22942682
vn 0.00000000 -0.97332591 -0.22942682
vn 0.00000000 1.00000000 0.00000000
vn 0.00000000 1.00000000 0.00000000
vn 0.00000000 1.00000000 0.00000000
vn 0.00000000 1.00000000 0.00000000
vn 0.00000000 -0.97588398 0.21828984
vn 0.00000000 -0.97588398 0.21828984
vn 0.00000000 -0.97588398 0.21828984
vn 0.00000000 -0.97588398 0.21828984
vn 0.00000000 0.00000000 -1.00000000
vn 0.00000000 0.00000000 -1.00000000
vn 0.00000000 0.00000000 -1.00000000
vn 0.00000000 0.00000000 -1.00000000

g Karl_Body_Collider_Lower
f 2/1/1 3/2/2 1/3/3 16/4/4
f 2/5/5 16/6/6 11/7/7 13/8/8
f 3/9/9 7/10/10 4/11/11 1/12/12
f 5/13/13 15/14/14 1/15/15 4/16/16
f 8/17/17 15/18/18 5/19/19 6/20/20
f 14/21/21 16/22/22 1/23/23 15/24/24
f 12/25/25 9/26/26 10/27/27 14/28/28
f 6/29/29 9/30/30 12/31/31 8/32/32
f 10/33/33 11/34/34 16/35/35 14/36/36
f 5/37/37 4/38/38 11/39/39 10/40/40
f 11/41/41 4/42/42 7/43/43 13/44/44
f 15/45/45 8/46/46 12/47/47 14/48/48
f 5/49/49 10/50/50 9/51/51 6/52/52
f 3/53/53 2/54/54 13/55/55 7/56/56

