# RokuSuper Output Ver6.0 for Wavefront Obj

v 0.00000000 3.93528709 0.80954256
v 0.00000000 3.93528709 2.62480734
v -0.63000001 1.60000002 2.62480734
v 0.63000001 1.60000002 2.62480734
v 0.63000001 1.60000002 0.80954256
v -0.63000001 1.60000002 0.80954256
v -0.63000001 3.80000006 2.62480734
v 0.63000001 3.80000006 2.62480734
v 0.63000001 3.80000006 0.80954256
v -0.63000001 3.80000006 0.80954256

vt 0.28363522 0.00000000
vt 0.71636478 0.00000000
vt 0.50000000 0.00000000
vt 0.71636478 0.00000000
vt 0.71636478 0.00000000
vt 0.50000000 0.00000000
vt 0.71636478 0.62801988
vt 0.28363522 0.62801988
vt 0.50000000 0.62801988
vt 0.28363522 0.62801988
vt 0.28363522 0.62801988
vt 0.50000000 0.62801988
vt 0.28363522 0.00000000
vt 0.50000000 0.00000000
vt 0.28363522 0.00000000
vt 0.71636478 0.62801988
vt 0.50000000 0.62801988
vt 0.71636478 0.62801988
vt 0.28363522 0.62801988
vt 0.28363522 0.00000000
vt 0.50000000 0.00000000
vt 0.50000000 0.62801988
vt 0.50000000 0.62801988
vt 0.50000000 0.00000000
vt 0.71636478 0.00000000
vt 0.71636478 0.62801988
vt 0.28363522 0.62801988
vt 0.71636478 0.62801988
vt 0.71636478 0.00000000
vt 0.28363522 0.00000000
vt 0.28363522 0.62801988
vt 0.28363522 0.62801988
vt 0.28363522 0.00000000
vt 0.28363522 0.00000000
vt 0.71636478 0.62801988
vt 0.71636478 0.00000000
vt 0.71636478 0.00000000
vt 0.71636478 0.62801988

vn 0.00000000 0.00000000 -1.00000000
vn 0.00000000 0.00000000 -1.00000000
vn 0.00000000 0.00000000 -1.00000000
vn 0.00000000 0.00000000 -1.00000000
vn 0.00000000 0.00000000 -1.00000000
vn 0.00000000 0.00000000 -1.00000000
vn 0.00000000 0.00000000 1.00000000
vn 0.00000000 0.00000000 1.00000000
vn 0.00000000 0.00000000 1.00000000
vn 0.00000000 0.00000000 1.00000000
vn 0.00000000 0.00000000 1.00000000
vn 0.00000000 0.00000000 1.00000000
vn 0.00000000 0.00000000 -1.00000000
vn 0.00000000 0.00000000 -1.00000000
vn 0.00000000 0.00000000 -1.00000000
vn 0.00000000 0.00000000 1.00000000
vn 0.00000000 0.00000000 1.00000000
vn 0.00000000 0.00000000 1.00000000
vn 0.20995497 0.97771106 0.00000000
vn 0.20995497 0.97771106 0.00000000
vn 0.07139776 0.99744792 0.00000000
vn -0.07139776 0.99744792 0.00000000
vn -0.07139776 0.99744792 0.00000000
vn 0.07139776 0.99744792 0.00000000
vn -0.20995497 0.97771106 0.00000000
vn -0.20995497 0.97771106 0.00000000
vn 0.00000000 -1.00000000 0.00000000
vn 0.00000000 -1.00000000 0.00000000
vn 0.00000000 -1.00000000 0.00000000
vn 0.00000000 -1.00000000 0.00000000
vn 1.00000000 0.00000000 0.00000000
vn 1.00000000 0.00000000 0.00000000
vn 1.00000000 0.00000000 0.00000000
vn 1.00000000 0.00000000 0.00000000
vn -1.00000000 0.00000000 0.00000000
vn -1.00000000 0.00000000 0.00000000
vn -1.00000000 0.00000000 0.00000000
vn -1.00000000 0.00000000 0.00000000

g Karl_Cannon_Collider
f 5/1/1 6/2/2 1/3/3
f 6/4/4 10/5/5 1/6/6
f 3/7/7 4/8/8 2/9/9
f 4/10/10 8/11/11 2/12/12
f 5/13/13 1/14/14 9/15/15
f 3/16/16 2/17/17 7/18/18
f 8/19/19 9/20/20 1/21/21 2/22/22
f 2/23/23 1/24/24 10/25/25 7/26/26
f 4/27/27 3/28/28 6/29/29 5/30/30
f 8/31/31 4/32/32 5/33/33 9/34/34
f 7/35/35 10/36/36 6/37/37 3/38/38

